<svg width="60" height="60" viewBox="0 0 60 60" fill="none" xmlns="http://www.w3.org/2000/svg">
<g clip-path="url(#clip0_101_34)">
<path d="M51 0H9C4.02944 0 0 4.02944 0 9V51C0 55.9706 4.02944 60 9 60H51C55.9706 60 60 55.9706 60 51V9C60 4.02944 55.9706 0 51 0Z" fill="#F5914F"/>
<path d="M36.268 34.8156L36.9928 34.1055L35.3095 32.4376L34.5878 33.1477L36.268 34.8156ZM39.4231 33.8077L42.4607 35.4364L43.5972 33.3703L40.5612 31.7432L39.4231 33.8077ZM43.0441 38.6718L40.7869 40.8868L42.4671 42.5531L44.7242 40.3397L43.0441 38.6718ZM39.4104 41.5984C37.1056 41.8116 31.145 41.6219 24.6884 35.2921L23.0067 36.9585C30.0514 43.8667 36.7575 44.2053 39.633 43.9404L39.4104 41.5984ZM24.6884 35.2921C18.5354 29.257 17.5149 24.1828 17.3877 21.9804L15.0066 22.1137C15.1656 24.8851 16.4292 30.5095 23.0067 36.9585L24.6884 35.2921ZM26.8739 25.6046L27.3301 25.1563L25.6516 23.49L25.1954 23.9367L26.8739 25.6046ZM27.6925 19.4582L25.6898 16.8185L23.7807 18.2293L25.7835 20.8675L27.6925 19.4582ZM18.9486 16.2432L16.4531 18.6886L18.1348 20.3564L20.6287 17.911L18.9486 16.2432ZM26.0347 24.7707C25.1922 23.9367 25.1922 23.9367 25.1922 23.9399H25.1891L25.1843 23.9461C25.1087 24.0213 25.0411 24.1037 24.9824 24.1923C24.8966 24.3177 24.8028 24.4823 24.7233 24.6907C24.5298 25.2289 24.4816 25.8075 24.5834 26.3696C24.7964 27.7255 25.7438 29.5173 28.1694 31.8968L29.8511 30.2289C27.5797 28.003 27.0392 26.6486 26.9391 26.0091C26.8914 25.7049 26.9407 25.5545 26.955 25.52C26.9645 25.4991 26.9645 25.4959 26.955 25.5106C26.9408 25.5322 26.9249 25.5526 26.9073 25.5717L26.8914 25.5874L26.8755 25.6015L26.0347 24.7707ZM28.1694 31.8968C30.5966 34.2764 32.4229 35.2044 33.7994 35.4113C34.5036 35.5179 35.0711 35.4332 35.5018 35.2749C35.7431 35.1879 35.9685 35.0629 36.1694 34.905L36.2489 34.8344L36.26 34.825L36.2648 34.8203L36.2664 34.8172C36.2664 34.8172 36.268 34.8156 35.4271 33.9817C34.5847 33.1477 34.5894 33.1462 34.5894 33.1462L34.5926 33.143L34.5958 33.1399L34.6053 33.132L34.6212 33.1164L34.6816 33.0693C34.6965 33.0599 34.6927 33.061 34.6705 33.0725C34.6308 33.0866 34.475 33.1352 34.1619 33.0881C33.5038 32.9878 32.1209 32.4549 29.8511 30.2289L28.1694 31.8968ZM25.6898 16.8169C24.0684 14.685 20.8831 14.3464 18.9486 16.2432L20.6287 17.911C21.4744 17.0818 22.9749 17.168 23.7807 18.2293L25.6898 16.8169ZM17.3893 21.982C17.3575 21.4396 17.6103 20.8722 18.1348 20.358L16.4515 18.6901C15.5979 19.5272 14.9256 20.7123 15.0066 22.1137L17.3893 21.982ZM40.7869 40.8868C40.3514 41.3163 39.8809 41.5577 39.412 41.6L39.633 43.9404C40.8012 43.8322 41.7565 43.2522 42.4686 42.5546L40.7869 40.8868ZM27.3301 25.1563C28.8958 23.6217 29.0118 21.1966 27.6941 19.4598L25.7851 20.869C26.4257 21.7139 26.3303 22.8222 25.65 23.4916L27.3301 25.1563ZM42.4623 35.4379C43.7609 36.1339 43.9628 37.7736 43.0456 38.6734L44.7273 40.3397C46.8573 38.2501 46.2008 34.7654 43.5988 33.3719L42.4623 35.4379ZM36.9928 34.1071C37.6031 33.5083 38.5855 33.3609 39.4247 33.8092L40.5628 31.7448C38.8398 30.8199 36.7035 31.0754 35.3111 32.4392L36.9928 34.1071Z" fill="white"/>
</g>
<defs>
<clipPath id="clip0_101_34">
<rect width="60" height="60" rx="30" fill="white"/>
</clipPath>
</defs>
</svg>
