<svg width="30" height="30" viewBox="0 0 30 30" fill="none" xmlns="http://www.w3.org/2000/svg">
<g clip-path="url(#clip0_101_6)">
<path d="M25.5 0H4.5C2.01472 0 0 2.01472 0 4.5V25.5C0 27.9853 2.01472 30 4.5 30H25.5C27.9853 30 30 27.9853 30 25.5V4.5C30 2.01472 27.9853 0 25.5 0Z" fill="white"/>
<path d="M20.7837 9H8.46635C7.65651 9 7 9.65651 7 10.4663V19.2644C7 20.0743 7.65651 20.7308 8.46635 20.7308H20.7837C21.5935 20.7308 22.25 20.0743 22.25 19.2644V10.4663C22.25 9.65651 21.5935 9 20.7837 9Z" stroke="#6F6F6F" stroke-linecap="round" stroke-linejoin="round"/>
<path d="M9 11L14.625 15.375L20.25 11" stroke="#6F6F6F" stroke-linecap="round" stroke-linejoin="round"/>
</g>
<defs>
<clipPath id="clip0_101_6">
<rect width="30" height="30" rx="15" fill="white"/>
</clipPath>
</defs>
</svg>
