<svg width="40" height="40" viewBox="0 0 40 40" fill="none" xmlns="http://www.w3.org/2000/svg">
<g clip-path="url(#clip0_50_185)">
<path d="M34 0H6C2.68629 0 0 2.68629 0 6V34C0 37.3137 2.68629 40 6 40H34C37.3137 40 40 37.3137 40 34V6C40 2.68629 37.3137 0 34 0Z" fill="#328CFF"/>
<path d="M19.7279 16.7264C17.6606 16.7264 16.6269 18.3626 16.6269 20.1858C16.6269 22.2427 17.9302 23.5516 19.683 23.5516C21.6155 23.5516 22.9638 22.0557 22.9638 20.0455C22.9638 17.9886 21.4358 16.7264 19.7279 16.7264ZM19.683 14.9968C21.0313 14.9968 22.2447 15.6045 23.1436 16.5394C23.1436 15.511 24.7166 15.511 24.7166 16.5862V23.5984C24.6716 24.0658 25.166 24.3463 25.4356 24.0191C26.5592 22.8504 27.8626 18.0354 24.8065 15.2772C21.9301 12.6594 18.11 13.0801 16.0426 14.576C13.8854 16.1187 12.4922 19.578 13.8404 22.7569C15.3235 26.3097 19.5032 27.3849 22.02 26.3097C23.2784 25.7488 23.8627 27.5252 22.5593 28.1329C20.5369 29.0211 15.0089 28.9276 12.4472 24.2996C10.7394 21.1207 10.8293 15.6512 15.4584 12.7061C18.9639 10.5557 23.6379 11.1634 26.4244 14.202C29.3906 17.4276 29.2108 23.4114 26.3345 25.702C25.0761 26.7772 23.1436 25.7488 23.1436 24.2061V23.6918C22.2447 24.6268 21.0313 25.1878 19.683 25.1878C17.1213 25.1878 14.8292 22.8036 14.8292 20.139C14.8292 17.4276 17.1213 14.9968 19.683 14.9968Z" fill="white"/>
</g>
<defs>
<clipPath id="clip0_50_185">
<rect width="40" height="40" rx="20" fill="white"/>
</clipPath>
</defs>
</svg>
