<svg width="40" height="40" viewBox="0 0 40 40" fill="none" xmlns="http://www.w3.org/2000/svg">
<path fill-rule="evenodd" clip-rule="evenodd" d="M29.4252 39.9943C26.5403 39.8882 18.3645 38.7585 9.80205 30.1998C1.24158 21.639 0.113676 13.4669 0.00549328 10.5806C-0.154778 6.18207 3.21492 1.90973 7.1075 0.241247C7.57624 0.0388798 8.08956 -0.0381675 8.59708 0.0176654C9.10459 0.0734984 9.58887 0.260293 10.0024 0.55972C13.2078 2.89519 15.4195 6.42844 17.3188 9.20657C17.7366 9.81693 17.9153 10.5597 17.8207 11.2933C17.7261 12.0269 17.3649 12.7 16.8059 13.1845L12.8973 16.0868C12.7085 16.2231 12.5755 16.4233 12.5232 16.6503C12.4709 16.8772 12.5027 17.1154 12.6128 17.3206C13.4983 18.929 15.073 21.3246 16.876 23.1273C18.6791 24.9299 21.1893 26.6084 22.9102 27.5939C23.126 27.715 23.38 27.7488 23.6199 27.6885C23.8599 27.6281 24.0676 27.4782 24.2004 27.2694L26.7447 23.3977C27.2125 22.7764 27.9025 22.3603 28.6703 22.2363C29.4381 22.1123 30.2241 22.2902 30.8637 22.7327C33.6824 24.6836 36.972 26.8568 39.3801 29.9394C39.7039 30.3558 39.9098 30.8515 39.9764 31.3748C40.043 31.898 39.9678 32.4296 39.7587 32.9138C38.0819 36.8256 33.8387 40.1566 29.4252 39.9943Z" fill="#328CFF"/>
</svg>
