<svg width="22" height="28" viewBox="0 0 22 28" fill="none" xmlns="http://www.w3.org/2000/svg">
<path opacity="0.8" d="M0.100586 3.81501C0.100586 2.23705 0.100586 1.44807 0.430342 1.00759C0.717714 0.623712 1.1576 0.383584 1.6359 0.349398C2.18479 0.31022 2.84834 0.736847 4.17576 1.59017L19.7828 11.6234C20.9347 12.3637 21.5106 12.7339 21.7093 13.2047C21.8832 13.616 21.8832 14.0802 21.7093 14.4915C21.5106 14.9623 20.9347 15.3326 19.7828 16.0728L4.17576 26.106C2.84834 26.9594 2.18479 27.3862 1.6359 27.3468C1.1576 27.3128 0.717714 27.0724 0.430342 26.6886C0.100586 26.2482 0.100586 25.4594 0.100586 23.8813V3.81501Z" fill="#F4F4F4"/>
</svg>
