<svg width="40" height="40" viewBox="0 0 40 40" fill="none" xmlns="http://www.w3.org/2000/svg">
<g clip-path="url(#clip0_50_197)">
<path d="M31.1138 0.241455H8.69565C3.89318 0.241455 0 4.09277 0 8.84361V31.0207C0 35.7716 3.89318 39.6229 8.69565 39.6229H31.1138C35.9163 39.6229 39.8095 35.7716 39.8095 31.0207V8.84361C39.8095 4.09277 35.9163 0.241455 31.1138 0.241455Z" fill="#34AADF"/>
<path d="M11.0748 19.2346C11.0748 19.2346 19.174 15.8601 21.9829 14.6718C23.0597 14.1966 26.7113 12.6756 26.7113 12.6756C26.7113 12.6756 28.3967 12.0102 28.2562 13.6262C28.2094 14.2916 27.8348 16.6205 27.4604 19.1396C26.8985 22.7043 26.2899 26.6016 26.2899 26.6016C26.2899 26.6016 26.1963 27.6948 25.4004 27.885C24.6046 28.0751 23.2937 27.2196 23.0597 27.0294C22.8724 26.8868 19.5485 24.748 18.3313 23.7024C18.0035 23.4172 17.6291 22.8469 18.3781 22.1815C20.0634 20.613 22.0765 18.6643 23.2937 17.4286C23.8555 16.8582 24.4173 15.5274 22.0765 17.1434C18.7526 19.4723 15.4755 21.6586 15.4755 21.6586C15.4755 21.6586 14.7264 22.1339 13.322 21.7061C11.9175 21.2784 10.2789 20.708 10.2789 20.708C10.2789 20.708 9.15544 19.9951 11.0748 19.2346Z" fill="white"/>
</g>
<defs>
<clipPath id="clip0_50_197">
<rect width="40" height="40" rx="20" fill="white"/>
</clipPath>
</defs>
</svg>
