<svg width="30" height="30" viewBox="0 0 30 30" fill="none" xmlns="http://www.w3.org/2000/svg">
<g clip-path="url(#clip0_101_28)">
<path d="M25.5 0H4.5C2.01472 0 0 2.01472 0 4.5V25.5C0 27.9853 2.01472 30 4.5 30H25.5C27.9853 30 30 27.9853 30 25.5V4.5C30 2.01472 27.9853 0 25.5 0Z" fill="white"/>
<path fill-rule="evenodd" clip-rule="evenodd" d="M9.44911 16.3463C9.48315 16.3566 9.51787 16.3646 9.55303 16.3703C9.77576 16.887 9.99725 17.4042 10.2175 17.9219C10.6135 18.8535 11.0126 19.813 11.1 20.0889C11.2094 20.4284 11.3244 20.6593 11.4504 20.8174C11.5157 20.898 11.5905 20.9693 11.6787 21.0236C11.725 21.0512 11.774 21.0741 11.8251 21.0918C12.077 21.1848 12.3069 21.146 12.451 21.0988C12.5356 21.0705 12.616 21.0314 12.6903 20.9825L12.6942 20.981L14.9191 19.6154L17.4895 21.5545C17.5273 21.5829 17.5682 21.6069 17.6123 21.6266C17.9209 21.7583 18.2201 21.8048 18.5019 21.7676C18.7822 21.7289 19.005 21.6134 19.1711 21.4824C19.3617 21.3309 19.5137 21.1377 19.6151 20.9182L19.6222 20.9011L19.6246 20.8949L19.6262 20.8918V20.8903L19.627 20.8895C19.6399 20.8559 19.6504 20.8215 19.6584 20.7864L22.0045 9.14162C22.011 9.10422 22.0147 9.0664 22.0155 9.02847C22.0155 8.68746 21.8848 8.36272 21.5786 8.16664C21.3157 7.99846 21.0236 7.99071 20.8386 8.00466C20.6402 8.02016 20.456 8.06821 20.3323 8.10696C20.2633 8.12892 20.195 8.15322 20.1277 8.17981L20.119 8.18369L6.96054 13.2648L6.95897 13.2656C6.91435 13.2814 6.87048 13.2993 6.82749 13.319C6.72311 13.3651 6.62301 13.4201 6.52833 13.4833C6.34962 13.6035 5.93787 13.9336 6.00794 14.4792C6.06305 14.9133 6.36536 15.1806 6.55037 15.3093C6.65114 15.3798 6.74719 15.4302 6.81804 15.4635C6.84954 15.479 6.91724 15.5054 6.94637 15.5178L6.95424 15.5201L9.44911 16.3463ZM20.5796 9.25323H20.578L20.5575 9.26175L7.38331 14.3498L7.36284 14.3576L7.35496 14.3599C7.33084 14.3691 7.3072 14.3794 7.28411 14.3909C7.30612 14.4031 7.32872 14.4142 7.35181 14.4242L9.82542 15.2442C9.8691 15.2601 9.91125 15.2798 9.95139 15.3031L18.1209 10.5948L18.1288 10.5909C18.1607 10.5722 18.1932 10.5547 18.2264 10.5382C18.2831 10.5096 18.3736 10.4677 18.476 10.4367C18.5468 10.415 18.757 10.3538 18.9838 10.4258C19.1042 10.4628 19.2116 10.5326 19.2935 10.6271C19.3754 10.7216 19.4285 10.8369 19.4467 10.9598C19.476 11.0674 19.4768 11.1805 19.449 11.2885C19.3939 11.5016 19.2428 11.6674 19.105 11.7945C18.9869 11.9031 17.4549 13.357 15.9441 14.7924L13.887 16.7454L13.5209 17.0942L18.1437 20.5834C18.2062 20.609 18.2739 20.6197 18.3413 20.6144C18.3753 20.6098 18.4072 20.5958 18.4335 20.5741C18.4653 20.5475 18.4927 20.5161 18.5145 20.4811L18.5161 20.4803L20.7913 9.1858C20.7198 9.20315 20.6495 9.22542 20.5811 9.25245L20.5796 9.25323ZM13.9184 18.8589L12.9958 18.163L12.7722 19.5619L13.9184 18.8589ZM12.1494 16.7819L13.0666 15.9099L15.1238 13.9553L15.8898 13.2284L10.7568 16.1866L10.7843 16.2502C11.1081 17.0031 11.4282 17.7574 11.7448 18.5133L11.9676 17.1182C11.9879 16.9889 12.052 16.8709 12.1494 16.7819Z" fill="#6F6F6F"/>
</g>
<defs>
<clipPath id="clip0_101_28">
<rect width="30" height="30" rx="15" fill="white"/>
</clipPath>
</defs>
</svg>
