<svg width="60" height="60" viewBox="0 0 60 60" fill="none" xmlns="http://www.w3.org/2000/svg">
<circle cx="30" cy="30" r="30" fill="white"/>
<path fill-rule="evenodd" clip-rule="evenodd" d="M30 60C33.9397 60 37.8407 59.224 41.4805 57.7164C45.1203 56.2087 48.4274 53.999 51.2132 51.2132C53.999 48.4274 56.2087 45.1203 57.7164 41.4805C59.224 37.8407 60 33.9397 60 30C60 26.0603 59.224 22.1593 57.7164 18.5195C56.2087 14.8797 53.999 11.5726 51.2132 8.7868C48.4274 6.00104 45.1203 3.79125 41.4805 2.28361C37.8407 0.775973 33.9397 -5.87054e-08 30 0C22.0435 1.18561e-07 14.4129 3.1607 8.7868 8.7868C3.16071 14.4129 0 22.0435 0 30C0 37.9565 3.16071 45.5871 8.7868 51.2132C14.4129 56.8393 22.0435 60 30 60ZM25.9433 16.6333L44.7567 27.0867C45.2761 27.3754 45.7088 27.7978 46.0101 28.31C46.3114 28.8223 46.4702 29.4057 46.4702 30C46.4702 30.5943 46.3114 31.1777 46.0101 31.69C45.7088 32.2022 45.2761 32.6246 44.7567 32.9133L25.9433 43.3667C25.3342 43.7053 24.6471 43.8788 23.9502 43.8701C23.2533 43.8615 22.5708 43.6709 21.9702 43.3172C21.3697 42.9635 20.872 42.4591 20.5264 41.8539C20.1808 41.2486 19.9993 40.5636 20 39.8667V20.1333C19.9993 19.4364 20.1808 18.7514 20.5264 18.1461C20.872 17.5409 21.3697 17.0365 21.9702 16.6828C22.5708 16.3291 23.2533 16.1385 23.9502 16.1298C24.6471 16.1212 25.3342 16.2947 25.9433 16.6333Z" fill="#F5914F"/>
</svg>
