<svg width="30" height="30" viewBox="0 0 30 30" fill="none" xmlns="http://www.w3.org/2000/svg">
<g clip-path="url(#clip0_101_34)">
<path d="M25.5 0H4.5C2.01472 0 0 2.01472 0 4.5V25.5C0 27.9853 2.01472 30 4.5 30H25.5C27.9853 30 30 27.9853 30 25.5V4.5C30 2.01472 27.9853 0 25.5 0Z" fill="#F5914F"/>
<path d="M20.6683 9.32804C19.9311 8.58732 19.0531 8.00001 18.0854 7.60033C17.1178 7.20065 16.0799 6.99659 15.0322 7.00004C10.6422 7.00004 7.06432 10.56 7.06432 14.928C7.06432 16.328 7.43417 17.688 8.12563 18.888L7 23L11.2211 21.896C12.3869 22.528 13.6975 22.864 15.0322 22.864C19.4221 22.864 23 19.304 23 14.936C23 12.816 22.1719 10.824 20.6683 9.32804ZM15.0322 21.52C13.8422 21.52 12.6764 21.2 11.6553 20.6L11.4141 20.456L8.90553 21.112L9.57286 18.68L9.41206 18.432C8.75079 17.3817 8.39974 16.1674 8.39899 14.928C8.39899 11.296 11.3739 8.33604 15.0241 8.33604C16.793 8.33604 18.4573 9.02404 19.7035 10.272C20.3207 10.8831 20.8098 11.6101 21.1424 12.4107C21.475 13.2113 21.6446 14.0697 21.6412 14.936C21.6573 18.568 18.6824 21.52 15.0322 21.52ZM18.6663 16.592C18.4653 16.496 17.4844 16.016 17.3075 15.944C17.1226 15.88 16.994 15.848 16.8573 16.04C16.7206 16.24 16.3427 16.688 16.2301 16.816C16.1176 16.952 15.997 16.968 15.796 16.864C15.595 16.768 14.9518 16.552 14.196 15.88C13.601 15.352 13.207 14.704 13.0864 14.504C12.9739 14.304 13.0704 14.2 13.1749 14.096C13.2633 14.008 13.3759 13.864 13.4724 13.752C13.5688 13.64 13.609 13.552 13.6734 13.424C13.7377 13.288 13.7055 13.176 13.6573 13.08C13.609 12.984 13.207 12.008 13.0462 11.608C12.8854 11.224 12.7166 11.272 12.596 11.264H12.21C12.0734 11.264 11.8643 11.312 11.6794 11.512C11.5025 11.712 10.9879 12.192 10.9879 13.168C10.9879 14.144 11.7035 15.088 11.8 15.216C11.8965 15.352 13.207 17.352 15.201 18.208C15.6754 18.416 16.0452 18.536 16.3347 18.624C16.809 18.776 17.2432 18.752 17.5889 18.704C17.9749 18.648 18.7709 18.224 18.9317 17.76C19.1005 17.296 19.1005 16.904 19.0442 16.816C18.9879 16.728 18.8673 16.688 18.6663 16.592Z" fill="white"/>
</g>
<defs>
<clipPath id="clip0_101_34">
<rect width="30" height="30" rx="15" fill="white"/>
</clipPath>
</defs>
</svg>
